<svg width="438" height="96" viewBox="0 0 438 96" fill="none" xmlns="http://www.w3.org/2000/svg">
<path d="M0.660522 0.246338V94.7162H50.7669V74.0674H25.9815V56.6611H49.1487V36.5489H25.9815V20.8951H50.3623V0.246338H0.660522Z" fill="#EE2737"/>
<path d="M69.0824 0.246338L55.345 78.252V94.7162H77.5692L79.8599 75.8227H94.0017L96.1554 94.7162H120.266V78.252L106.662 0.246338H69.0824ZM86.1871 25.3481H88.4776L91.8449 55.174H82.4149L86.1871 25.3481Z" fill="#EE2737"/>
<path d="M125.115 0.246338V94.7162H175.218V74.0674H150.435V56.6611H173.602V36.5489H150.435V20.8951H174.816V0.246338H125.115Z" fill="#EE2737"/>
<path d="M209.508 0.246338H227.579C231.928 0.246338 235.257 1.3223 237.348 3.18809C239.549 5.17013 240.567 7.60221 240.567 10.7704C240.567 14.9015 238.026 17.5601 234.242 18.8626V19.0324C238.705 20.3349 241.754 24.0695 241.754 29.0499C241.754 32.841 240.567 35.4431 238.196 37.4816C235.879 39.5174 232.324 40.7067 228.028 40.7067H209.508V0.246338ZM226.562 16.5438C230.122 16.5438 232.547 14.8478 232.547 11.6767C232.547 8.67817 230.346 6.92266 226.731 6.92266H217.694V16.5408H226.562V16.5438ZM217.694 33.914H227.124C231.077 33.914 233.448 31.7054 233.448 28.4269C233.448 24.579 230.625 22.5972 226.898 22.5972H217.691V33.914H217.694Z" fill="#EE2737"/>
<path d="M265.358 40.7038V37.309H265.189C263.213 39.9675 260.956 41.4966 256.889 41.4966C250.452 41.4966 246.837 37.3655 246.837 31.0291V11.6765H254.462V29.7265C254.462 33.1213 255.988 34.9902 259.263 34.9902C262.877 34.9902 265.082 32.2748 265.082 28.427V11.6765H272.759V40.7038H265.358Z" fill="#EE2737"/>
<path d="M277.05 31.3121H284.164C284.674 34.6502 287.044 36.1228 290.49 36.1228C293.935 36.1228 295.798 34.8202 295.798 32.7844C295.798 30.0126 292.127 29.7296 288.174 28.9368C282.982 27.9173 277.896 26.5045 277.896 20.1651C277.896 13.8256 283.092 10.8838 289.701 10.8838C297.325 10.8838 301.561 14.6749 302.124 20.5048H295.178C294.839 17.3932 292.86 16.2607 289.585 16.2607C286.592 16.2607 284.613 17.3932 284.613 19.4855C284.613 21.9743 288.455 22.2009 292.579 23.0501C297.435 24.0697 302.802 25.4287 302.802 32.2181C302.802 38.045 297.832 41.5531 290.605 41.5531C282.19 41.5531 277.499 37.4788 277.05 31.3121Z" fill="#EE2737"/>
<path d="M307.374 0.246338H315.053V7.14917H307.374V0.246338ZM307.374 11.6764H315.053V40.7037H307.374V11.6764Z" fill="#EE2737"/>
<path d="M328.663 15.6377H328.832C330.811 12.5261 333.465 10.8838 337.415 10.8838C343.404 10.8838 347.414 15.4112 347.414 21.7478V40.7036H339.733V22.8804C339.733 19.7688 337.924 17.563 334.705 17.563C331.318 17.563 328.832 20.2783 328.832 24.2394V40.7066H321.15V11.6796H328.663V15.6407V15.6377Z" fill="#EE2737"/>
<path d="M351.877 26.162C351.877 17.5602 357.692 10.8838 366.162 10.8838C375.481 10.8838 380.451 18.0132 380.451 28.3675H359.443C360.008 32.8381 362.491 35.6099 366.84 35.6099C369.831 35.6099 371.584 34.2509 372.433 32.0454H379.999C378.924 37.1958 374.348 41.5531 366.895 41.5531C357.295 41.5531 351.871 34.8202 351.871 26.162H351.877ZM359.556 23.0501H372.433C372.207 19.3723 369.778 16.827 366.275 16.827C362.21 16.827 360.231 19.259 359.556 23.0501Z" fill="#EE2737"/>
<path d="M383.331 31.3121H390.445C390.955 34.6502 393.325 36.1228 396.77 36.1228C400.216 36.1228 402.076 34.8202 402.076 32.7844C402.076 30.0126 398.405 29.7296 394.452 28.9368C389.257 27.9173 384.174 26.5045 384.174 20.1651C384.174 13.8256 389.373 10.8838 395.979 10.8838C403.603 10.8838 407.84 14.6749 408.402 20.5048H401.456C401.117 17.3932 399.138 16.2607 395.864 16.2607C392.868 16.2607 390.891 17.3932 390.891 19.4855C390.891 21.9743 394.734 22.2009 398.854 23.0501C403.711 24.0697 409.077 25.4287 409.077 32.2181C409.077 38.045 404.105 41.5531 396.878 41.5531C388.46 41.5531 383.772 37.4788 383.325 31.3121H383.331Z" fill="#EE2737"/>
<path d="M411.85 31.3121H418.964C419.471 34.6502 421.844 36.1228 425.289 36.1228C428.735 36.1228 430.598 34.8202 430.598 32.7844C430.598 30.0126 426.927 29.7296 422.974 28.9368C417.781 27.9173 412.696 26.5045 412.696 20.1651C412.696 13.8256 417.892 10.8838 424.498 10.8838C432.122 10.8838 436.358 14.6749 436.924 20.5048H429.975C429.639 17.3932 427.66 16.2607 424.385 16.2607C421.392 16.2607 419.413 17.3932 419.413 19.4855C419.413 21.9743 423.255 22.2009 427.376 23.0501C432.235 24.0697 437.599 25.4287 437.599 32.2181C437.599 38.045 432.627 41.5531 425.4 41.5531C416.982 41.5531 412.299 37.4788 411.85 31.3121Z" fill="#EE2737"/>
<path d="M207.699 82.2191H215.716C216.281 87.0862 219.047 89.0088 224.81 89.0088C228.989 89.0088 232.66 87.5365 232.66 83.8019C232.66 79.8408 228.819 79.048 222.662 77.6352C215.433 75.9929 208.826 74.0704 208.826 65.6386C208.826 57.6599 215.32 53.5288 224.301 53.5288C233.281 53.5288 239.267 57.9997 239.889 66.1484H232.038C231.586 62.0741 228.424 60.0383 224.244 60.0383C219.842 60.0383 216.959 61.904 216.959 64.7921C216.959 68.0737 219.782 69.0365 225.77 70.336C234.07 72.1481 240.846 74.1271 240.846 82.8421C240.846 91.0474 234.24 95.6315 225.146 95.6315C214.19 95.6315 207.979 90.7644 207.696 82.2221L207.699 82.2191Z" fill="#EE2737"/>
<path d="M244.859 80.2399C244.859 71.5817 250.505 64.9053 259.317 64.9053C266.828 64.9053 271.459 69.2629 272.477 75.5428H264.962C264.457 72.9975 262.479 71.0719 259.656 71.0719C255.024 71.0719 252.65 74.6368 252.65 80.2399C252.65 85.8434 254.851 89.4079 259.54 89.4079C262.648 89.4079 264.849 87.7656 265.358 84.4843H272.753C272.248 90.651 267.446 95.5746 259.709 95.5746C250.562 95.5746 244.856 88.8984 244.856 80.2399H244.859Z" fill="#EE2737"/>
<path d="M284.897 69.4894H285.065C287.157 66.4343 289.527 64.9053 293.48 64.9053C299.466 64.9053 303.477 69.4326 303.477 75.7693V94.7251H295.795V76.9019C295.795 73.7903 293.987 71.5845 290.77 71.5845C287.383 71.5845 284.897 74.2998 284.897 78.2609V94.7281H277.218V54.2708H284.897V69.4894Z" fill="#EE2737"/>
<path d="M307.939 80.2399C307.939 71.5817 314.094 64.9053 323.074 64.9053C332.054 64.9053 338.208 71.5817 338.208 80.2399C338.208 88.8984 332.054 95.5746 323.074 95.5746C314.094 95.5746 307.939 88.8984 307.939 80.2399ZM330.416 80.2399C330.416 74.58 327.759 70.7322 323.071 70.7322C318.383 70.7322 315.728 74.58 315.728 80.2399C315.728 85.8999 318.325 89.6912 323.071 89.6912C327.815 89.6912 330.416 85.8999 330.416 80.2399Z" fill="#EE2737"/>
<path d="M341.486 80.2399C341.486 71.5817 347.64 64.9053 356.62 64.9053C365.6 64.9053 371.755 71.5817 371.755 80.2399C371.755 88.8984 365.6 95.5746 356.62 95.5746C347.64 95.5746 341.486 88.8984 341.486 80.2399ZM363.963 80.2399C363.963 74.58 361.309 70.7322 356.62 70.7322C351.932 70.7322 349.278 74.58 349.278 80.2399C349.278 85.8999 351.877 89.6912 356.62 89.6912C361.364 89.6912 363.963 85.8999 363.963 80.2399Z" fill="#EE2737"/>
<path d="M376.553 54.2649H384.235V94.7222H376.553V54.2649Z" fill="#EE2737"/>
</svg>
