<?xml version="1.0" encoding="utf-8"?>
<!-- Generator: Adobe Illustrator 16.0.0, SVG Export Plug-In . SVG Version: 6.00 Build 0)  -->
<!DOCTYPE svg PUBLIC "-//W3C//DTD SVG 1.1//EN" "http://www.w3.org/Graphics/SVG/1.1/DTD/svg11.dtd">
<svg version="1.1" id="Capa_1" xmlns="http://www.w3.org/2000/svg" xmlns:xlink="http://www.w3.org/1999/xlink" x="0px" y="0px"
	 width="119.692px" height="32.003px" viewBox="0 0 119.692 32.003" enable-background="new 0 0 119.692 32.003"
	 xml:space="preserve">
<title>Artboard</title>
<desc>Created with Sketch.</desc>
<g id="Page-1">
	<g id="Artboard">
		<path id="Fill-6" fill="#10069F" d="M59.961,24.173h-3.266c-6.961,0-7.528-3.7-7.528-8.172c0-4.471,0.567-8.172,7.528-8.172h3.266
			c6.962,0,7.529,3.702,7.529,8.172C67.49,20.473,66.923,24.173,59.961,24.173z M59.961,2.713h-3.266
			c-8.979,0-13.344,4.347-13.344,13.288c0,8.942,4.367,13.29,13.344,13.29h3.266c8.981,0,13.344-4.348,13.344-13.29
			C73.305,7.06,68.94,2.713,59.961,2.713z M25.014,23.71h-7.771V8.293h7.771c8.006,0,8.804,2.231,8.804,7.708
			C33.815,21.88,32.6,23.71,25.014,23.71z M25.014,3.142H11.583V28.86h13.428c10.784,0,14.604-3.366,14.604-12.859
			C39.617,7.857,37.228,3.142,25.014,3.142z M106.334,2.713c-3.623,0.053-7.505,1.316-8.552,4.542
			c-1.046-3.226-4.931-4.489-8.558-4.542c-7.881,0-11.314,3.136-11.314,9.709V28.86h5.659V12.422c0-3.059,1.236-4.595,5.702-4.595
			c3.633,0,5.68,1.502,5.68,4.692v16.34h5.661V12.521c0-3.19,2.044-4.692,5.679-4.692c4.468,0,5.702,1.536,5.702,4.595V28.86h5.661
			V12.422C117.65,5.849,114.217,2.713,106.334,2.713z M0.267,28.86h5.659V3.142H0.267V28.86z"/>
	</g>
</g>
</svg>
