<svg xmlns="http://www.w3.org/2000/svg" width="193.349" height="35" viewBox="0 0 193.349 35">
  <g id="Group_1459" data-name="Group 1459" transform="translate(-114 -4007)">
    <path id="Path_204" data-name="Path 204" d="M257.341,253.832h8.907v23.637h-8.907v-2.153q-2.027,2.746-6.374,2.745a10.5,10.5,0,0,1-8.082-3.526,12.928,12.928,0,0,1-3.23-9.094,12.246,12.246,0,0,1,3.23-8.8,10.676,10.676,0,0,1,8.082-3.4q4.347,0,6.374,2.7Zm-4.6,16.294a4.417,4.417,0,0,0,2.933-1.161,4.285,4.285,0,0,0,1.246-3.356,4.166,4.166,0,0,0-1.246-3.292,4.543,4.543,0,0,0-2.976-1.139,3.971,3.971,0,0,0-3.017,1.206,4.3,4.3,0,0,0-1.246,3.184,4.539,4.539,0,0,0,1.267,3.293A3.929,3.929,0,0,0,252.74,270.125Z" transform="translate(-93.971 3763.939)" fill="#fff"/>
    <path id="Path_205" data-name="Path 205" d="M342.253,253.242a10.532,10.532,0,0,1,7.26,2.363q2.659,2.365,2.659,6.964v14.9H342.084V264.594a2.933,2.933,0,0,0-.864-2.3,3.4,3.4,0,0,0-4.411.061,3.053,3.053,0,0,0-.887,2.322v12.789H325.875V253.832h8.568v2.533A10.086,10.086,0,0,1,342.253,253.242Z" transform="translate(-148.836 3763.939)" fill="#fff"/>
    <path id="Path_206" data-name="Path 206" d="M422.4,225.246H432.4v34.408h-8.907V257.5q-2.025,2.745-6.373,2.745a10.5,10.5,0,0,1-8.084-3.526,12.88,12.88,0,0,1-3.227-9.054,12.349,12.349,0,0,1,3.208-8.842,10.755,10.755,0,0,1,8.187-3.4,8.3,8.3,0,0,1,5.191,1.519Zm-3.545,27.065a4.2,4.2,0,0,0,2.933-1.14,4.477,4.477,0,0,0,1.287-3.378,4.166,4.166,0,0,0-1.244-3.292,4.543,4.543,0,0,0-2.977-1.139,3.975,3.975,0,0,0-3.018,1.206,4.311,4.311,0,0,0-1.244,3.184,4.549,4.549,0,0,0,1.224,3.272A4.022,4.022,0,0,0,418.85,252.311Z" transform="translate(-199.7 3781.754)" fill="#fff"/>
    <path id="Path_207" data-name="Path 207" d="M510.263,264.975q0,1.057-.21,3.039l-15.321.085q1.477,3.291,7.471,3.292a21.694,21.694,0,0,0,6.627-1.141v6.29a23.171,23.171,0,0,1-8.358,1.52q-6.754,0-10.616-3.356T486,265.4a11.637,11.637,0,0,1,3.461-8.885,12.548,12.548,0,0,1,8.99-3.271q5.615,0,8.717,3.29A11.814,11.814,0,0,1,510.263,264.975Zm-8.9-4.093a3.744,3.744,0,0,0-2.7-.972,4.108,4.108,0,0,0-2.786.951,4.717,4.717,0,0,0-1.478,2.595h8.063A3.682,3.682,0,0,0,501.359,260.882Z" transform="translate(-250.725 3763.939)" fill="#fff"/>
    <path id="Path_208" data-name="Path 208" d="M570.062,257.071q2.49-3.25,7.935-3.251v9.245a8.49,8.49,0,0,0-1.772-.21,5.637,5.637,0,0,0-3.335,1.013,4.186,4.186,0,0,0-1.688,3.082v11.269H561.157V254.581h8.905Z" transform="translate(-298.552 3763.571)" fill="#fff"/>
    <path id="Path_209" data-name="Path 209" d="M634.2,274.578a14.576,14.576,0,0,1-18.91,0,11.87,11.87,0,0,1-3.756-9.137,11.283,11.283,0,0,1,3.756-8.844,15,15,0,0,1,18.91,0,11.285,11.285,0,0,1,3.756,8.844A11.872,11.872,0,0,1,634.2,274.578Zm-12.6-5.761a4.249,4.249,0,0,0,3.144,1.308,4.181,4.181,0,0,0,3.126-1.308,4.5,4.5,0,0,0,1.265-3.251,4.324,4.324,0,0,0-4.391-4.39,4.312,4.312,0,0,0-3.144,1.267,4.213,4.213,0,0,0-1.286,3.123A4.455,4.455,0,0,0,621.6,268.817Z" transform="translate(-330.611 3763.939)" fill="#fff"/>
    <path id="Path_210" data-name="Path 210" d="M173.949,244.254h-8.91v8.412H169.1c8.5,0,13.569-5.116,13.569-12.852,0-7.693-5.073-12.809-13.569-12.809H152.532v33.768h10.434V235.418h10.984l-3.129,4.419Z" transform="translate(-38.532 3780.635)" fill="#fff"/>
  </g>
</svg>
